<svg version="1.0" xmlns="http://www.w3.org/2000/svg" width="1920.000000ptpx" height="1920.000000ptpx" viewBox="0 0 1920.000000 1920.000000" preserveAspectRatio="xMidYMid meet" transform="rotate(0) scale(1, 1)">

<g transform="translate(0.000000,1920.000000) scale(0.100000,-0.100000)" fill="#0464fc" stroke="none">
<path d="M2702 16708 c-175 -22 -406 -101 -559 -192 -403 -240 -674 -647 -733&#10;-1098 -8 -59 -10 -1274 -8 -4138 3 -3860 4 -4059 21 -4130 77 -319 200 -544&#10;416 -761 189 -188 370 -300 606 -374 238 -75 19 -69 2583 -72 l2302 -3 -2&#10;-428 -3 -427 -505 -6 c-465 -5 -512 -7 -590 -27 -357 -87 -648 -288 -836 -577&#10;-146 -226 -217 -454 -218 -705 0 -108 3 -133 23 -183 32 -81 115 -168 199&#10;-209 l67 -33 3210 0 3210 0 55 26 c122 58 211 177 230 307 10 76 -4 249 -30&#10;358 -28 121 -57 198 -116 314 -163 320 -470 577 -809 675 -171 50 -242 55&#10;-737 55 l-458 0 0 430 0 430 958 2 957 3 -60 23 c-428 162 -738 323 -1050 547&#10;-443 317 -826 724 -1114 1185 l-72 115 -3427 5 -3427 5 -69 28 c-135 54 -249&#10;157 -304 275 -55 121 -52 -125 -52 3654 0 2515 3 3512 11 3550 37 177 180 337&#10;359 400 l65 23 5853 3 c5156 2 5861 0 5918 -13 100 -23 180 -69 260 -149 72&#10;-72 99 -114 138 -216 20 -54 21 -68 24 -845 l3 -791 137 -68 c170 -85 315&#10;-168 452 -259 115 -77 322 -230 341 -253 6 -8 16 -14 21 -14 5 0 7 449 5 1133&#10;-3 1124 -3 1133 -25 1229 -45 198 -116 370 -217 523 -68 104 -100 144 -193&#10;239 -205 209 -454 345 -763 418 l-94 22 -5940 2 c-3562 1 -5969 -2 -6013 -8z"/>
<path d="M6907 14856 c-81 -29 -148 -94 -177 -171 -6 -16 -97 -556 -201 -1200&#10;-104 -643 -239 -1476 -300 -1850 -60 -374 -125 -776 -145 -894 -19 -118 -36&#10;-216 -38 -219 -6 -5 23 -114 -406 1543 -226 871 -402 1532 -416 1562 -50 103&#10;-149 159 -272 151 -80 -5 -133 -28 -187 -83 -35 -35 -91 -156 -459 -992 l-419&#10;-952 -491 -3 c-476 -3 -492 -4 -537 -24 -55 -26 -111 -80 -141 -137 -32 -60&#10;-33 -194 0 -254 29 -55 83 -107 141 -135 l46 -23 621 0 620 0 59 30 c40 20 71&#10;46 95 78 21 29 143 294 315 686 154 352 283 636 286 633 3 -4 214 -812 469&#10;-1797 255 -984 472 -1809 483 -1833 28 -61 107 -129 175 -148 137 -40 288 27&#10;343 151 20 44 39 159 439 2640 121 748 223 1373 228 1389 6 24 20 -29 69 -255&#10;34 -156 123 -561 198 -899 75 -338 158 -716 185 -840 194 -885 282 -1282 295&#10;-1326 20 -69 88 -144 157 -174 133 -59 291 -9 363 114 16 28 48 137 90 312 36&#10;148 193 800 350 1449 157 649 304 1260 328 1357 23 98 45 174 49 170 3 -4 92&#10;-252 197 -551 105 -300 193 -546 195 -549 3 -2 17 20 32 50 56 111 151 268&#10;250 416 57 85 104 158 104 162 0 8 -293 847 -517 1484 -64 179 -93 225 -172&#10;273 -143 86 -330 29 -401 -122 -16 -34 -202 -792 -646 -2637 -49 -202 -91&#10;-364 -94 -360 -4 4 -61 257 -128 562 -359 1640 -664 3019 -675 3050 -18 54&#10;-113 143 -171 163 -59 20 -137 21 -189 3z"/>
<path d="M12900 13715 c-469 -47 -883 -164 -1305 -370 -398 -194 -709 -416&#10;-1025 -734 -306 -306 -507 -584 -699 -961 -629 -1238 -542 -2684 232 -3850&#10;218 -328 536 -667 852 -906 511 -388 1125 -645 1760 -738 182 -27 318 -36 550&#10;-36 328 -1 549 24 863 96 85 20 155 34 157 32 3 -3 305 -552 1339 -2433 318&#10;-577 589 -1067 602 -1087 43 -67 131 -144 207 -181 105 -53 206 -71 347 -64&#10;273 14 544 136 756 339 181 174 264 339 264 529 0 95 -17 163 -62 254 -17 33&#10;-413 755 -881 1605 -467 850 -892 1621 -943 1715 l-94 170 129 130 c205 208&#10;337 369 488 595 269 403 459 863 558 1350 86 419 97 875 34 1315 -120 836&#10;-556 1664 -1177 2231 -642 588 -1419 929 -2282 1004 -154 13 -515 11 -670 -5z&#10;m650 -1206 c207 -23 463 -85 643 -155 247 -96 518 -253 722 -419 111 -90 308&#10;-291 396 -405 515 -662 681 -1514 453 -2320 -271 -955 -1068 -1675 -2049&#10;-1849 -731 -129 -1502 68 -2083 535 -636 510 -999 1303 -969 2114 32 846 458&#10;1612 1152 2075 396 263 791 395 1315 439 66 6 322 -3 420 -15z"/>
</g>
</svg>