<svg version="1.0" xmlns="http://www.w3.org/2000/svg" width="225" height="225" viewBox="0 0 1920.000000 1920.000000" preserveAspectRatio="xMidYMid meet" transform="rotate(0) scale(1, 1)">

<g transform="translate(0.000000,1920.000000) scale(0.100000,-0.100000)" fill="#0464fc" stroke="none">
<path d="M8782 14470 c-69 -25 -108 -50 -159 -102 -67 -69 -96 -138 -101 -238
-5 -105 18 -175 84 -256 l44 -54 0 -715 0 -715 -275 0 -275 0 0 33 c0 17 -16
408 -35 867 -19 458 -35 851 -35 872 l0 38 -195 0 -195 0 0 -27 c0 -16 -16
-428 -36 -918 l-36 -890 -557 -558 -557 -558 -914 -39 c-503 -21 -916 -39
-917 -39 -2 -1 -3 -86 -3 -190 l0 -189 83 -6 c45 -3 440 -20 877 -37 437 -17
805 -33 818 -35 l22 -4 0 -270 0 -270 -718 0 c-705 0 -719 0 -737 20 -10 11
-39 33 -64 49 -231 147 -520 6 -573 -279 -32 -171 68 -364 225 -436 54 -25 74
-29 152 -29 76 0 99 4 146 26 31 15 74 43 96 63 l40 36 717 0 716 0 0 -405 0
-405 -718 0 -718 0 -33 34 c-18 19 -61 47 -95 63 -54 25 -73 28 -156 28 -84 0
-102 -4 -153 -29 -157 -76 -251 -265 -219 -438 37 -198 185 -330 372 -332 95
-1 162 23 241 86 l59 48 710 0 710 0 0 -274 0 -274 -72 -6 c-40 -3 -426 -20
-858 -36 -432 -17 -804 -33 -827 -36 l-43 -5 0 -190 c0 -104 3 -189 8 -189 4
-1 416 -18 916 -39 l908 -38 558 -559 558 -559 36 -880 c20 -484 36 -897 36
-917 l0 -38 195 0 195 0 0 38 c0 81 71 1748 75 1760 3 9 67 12 275 12 l270 0
0 -716 0 -717 -36 -40 c-20 -22 -48 -65 -63 -96 -23 -49 -26 -69 -26 -156 0
-95 2 -103 34 -163 68 -125 191 -202 336 -210 139 -7 243 35 334 134 125 137
128 347 5 483 l-44 49 2 714 3 713 405 0 405 0 3 -713 2 -714 -44 -49 c-61
-68 -89 -144 -89 -239 0 -110 29 -177 112 -261 91 -91 149 -113 291 -114 97 0
110 2 172 32 89 42 151 101 191 182 29 60 32 74 32 161 0 82 -4 103 -26 151
-15 31 -43 74 -63 96 l-36 40 0 717 0 716 270 0 c208 0 272 -3 275 -12 4 -13
75 -1670 75 -1755 l0 -43 195 0 195 0 0 38 c0 20 16 433 36 917 l36 880 558
559 558 559 908 38 c500 21 912 38 917 39 4 0 7 85 7 189 l0 190 -42 5 c-24 3
-396 19 -828 36 -432 16 -818 33 -857 36 l-73 6 0 274 0 274 710 0 710 0 59
-48 c79 -63 146 -87 241 -86 187 2 335 134 372 332 32 173 -62 362 -219 438
-51 25 -69 29 -153 29 -83 0 -102 -3 -156 -28 -34 -16 -77 -44 -95 -63 l-33
-34 -718 0 -718 0 0 405 0 405 716 0 717 0 40 -36 c22 -20 65 -48 96 -63 47
-22 70 -26 146 -26 78 0 98 4 152 29 158 73 257 265 225 438 -53 283 -343 424
-573 277 -25 -16 -54 -38 -64 -49 -18 -20 -32 -20 -737 -20 l-718 0 0 270 0
270 23 4 c12 2 380 18 817 35 437 17 832 34 878 37 l82 6 0 188 0 188 -62 6
c-35 3 -407 19 -828 36 -421 16 -806 33 -856 36 l-91 6 -556 552 -556 551 -36
895 c-19 492 -35 907 -35 923 l0 27 -195 0 -195 0 0 -42 c0 -24 -16 -416 -35
-873 -19 -456 -35 -845 -35 -862 l0 -33 -275 0 -275 0 0 715 0 715 44 54 c63
78 81 132 81 246 0 87 -3 100 -32 155 -38 74 -115 148 -191 183 -51 24 -69 27
-172 27 -108 0 -119 -2 -180 -31 -232 -110 -299 -399 -134 -582 l44 -50 0
-716 0 -716 -410 0 -410 0 0 716 0 716 44 50 c59 64 88 142 89 233 0 91 -14
139 -64 214 -46 69 -132 132 -212 156 -71 21 -199 19 -265 -5z m228 -210 c50
-25 81 -71 88 -125 6 -59 -3 -88 -40 -131 -135 -153 -386 -1 -298 180 42 88
157 123 250 76z m1366 -5 c117 -69 106 -239 -20 -296 -79 -36 -157 -20 -214
45 -37 43 -46 72 -40 131 14 121 161 186 274 120z m1358 -2897 l486 -481 0
-1661 0 -1661 -482 -482 -483 -483 -1655 0 -1655 0 -487 487 -488 488 0 1650
0 1650 487 487 488 488 1652 0 1651 0 486 -482z m-6992 -1288 c96 -27 153
-128 127 -224 -15 -55 -82 -121 -131 -130 -124 -23 -232 99 -199 223 19 73 78
124 161 140 3 0 22 -4 42 -9z m9838 -17 c38 -23 68 -66 81 -115 33 -123 -76
-245 -199 -222 -49 9 -116 75 -131 130 -40 150 121 285 249 207z m-9802 -1354
c161 -79 108 -339 -70 -339 -80 0 -142 47 -168 126 -26 79 18 180 93 215 55
24 91 24 145 -2z m9789 2 c75 -35 119 -136 93 -215 -47 -144 -223 -172 -306
-49 -58 87 -24 216 69 262 52 26 90 26 144 2z m-5560 -4232 c57 -28 86 -69 91
-134 8 -99 -56 -173 -157 -183 -66 -6 -113 12 -155 58 -59 66 -60 152 -3 217
57 65 143 81 224 42z m1346 7 c72 -30 117 -114 103 -192 -9 -45 -67 -109 -113
-125 -85 -28 -193 13 -228 86 -23 49 -17 130 13 172 44 63 151 91 225 59z"></path>
<path d="M7732 11077 l-372 -373 0 -1489 0 -1490 373 -373 372 -372 1495 0
1495 0 368 368 367 367 0 1498 0 1499 -370 369 -369 369 -1493 0 -1493 0 -373
-373z m2361 -222 c219 -39 402 -212 452 -430 14 -57 16 -132 13 -469 -3 -389
-4 -403 -26 -464 -72 -199 -233 -338 -440 -379 l-82 -16 0 -169 0 -168 -100 0
-100 0 0 -130 0 -130 100 0 100 0 0 -200 0 -200 -100 0 -100 0 0 -130 0 -130
100 0 101 0 -3 -157 -3 -158 -202 -3 -203 -2 0 -100 0 -100 -205 0 -205 0 0
890 0 889 -37 6 c-21 3 -65 13 -98 21 -189 49 -353 219 -400 415 -22 93 -22
795 0 888 51 213 234 387 448 426 105 19 883 19 990 0z"></path>
<path d="M9361 10573 c-14 -3 -35 -12 -48 -20 -47 -31 -53 -59 -53 -248 l0
-175 34 -38 34 -37 272 0 272 0 34 37 34 38 0 175 c0 274 6 269 -325 271 -126
1 -241 0 -254 -3z"></path>
<path d="M6133 12950 c-151 -30 -264 -171 -264 -329 0 -108 34 -186 112 -255
68 -62 120 -81 224 -81 80 0 97 3 148 30 74 37 139 109 167 183 18 46 21 72
18 137 -9 157 -101 270 -253 310 -64 16 -88 17 -152 5z"></path>
<path d="M12923 12950 c-96 -20 -189 -94 -233 -185 -35 -72 -40 -189 -10 -267
28 -75 96 -150 168 -185 49 -24 69 -28 147 -28 78 0 97 4 147 28 116 57 188
174 188 306 0 183 -127 319 -312 335 -29 3 -72 1 -95 -4z"></path>
<path d="M6119 6136 c-154 -41 -251 -170 -251 -334 1 -126 75 -242 191 -299
49 -24 68 -28 146 -28 80 0 97 3 148 30 231 116 254 438 41 581 -87 58 -181
76 -275 50z"></path>
<path d="M12923 6140 c-96 -20 -189 -94 -233 -185 -35 -72 -40 -189 -10 -267
28 -75 96 -150 168 -185 50 -24 69 -28 147 -28 78 0 97 4 147 28 72 35 140
110 168 185 30 78 25 195 -10 267 -67 137 -228 217 -377 185z"></path>
</g>
</svg>