<svg version="1.0" xmlns="http://www.w3.org/2000/svg" width="512.000000ptpx" height="512.000000ptpx" viewBox="0 0 512.000000 512.000000" preserveAspectRatio="xMidYMid meet" transform="rotate(0) scale(1, 1)">

<g transform="translate(0.000000,512.000000) scale(0.100000,-0.100000)" fill="#0464fc" stroke="none">
<path d="M2022 4697 c-6 -7 -12 -53 -14 -102 l-3 -88 -110 -19 c-508 -84 -948&#10;-387 -1209 -831 -120 -205 -184 -400 -221 -679 l-6 -48 -68 0 c-53 0 -72 -4&#10;-84 -18 -27 -30 -20 -50 36 -105 43 -42 57 -50 83 -48 l32 2 7 -68 c56 -547&#10;371 -1031 850 -1307 167 -96 396 -171 598 -196 l97 -12 0 -69 c0 -72 14 -99&#10;50 -99 22 0 50 25 50 45 0 8 9 17 20 20 16 5 20 15 20 54 l0 48 98 6 c280 17&#10;601 126 832 281 47 32 88 58 91 59 3 1 40 -22 81 -51 l76 -53 4 -54 c7 -84 52&#10;-147 233 -323 184 -180 334 -309 526 -452 243 -181 347 -214 467 -150 70 37&#10;212 190 249 268 43 89 25 187 -47 263 -78 84 -882 788 -920 806 -48 23 -126&#10;28 -176 11 l-41 -15 -58 52 -58 51 25 40 c36 56 85 155 108 217 38 102 120&#10;452 132 565 l12 112 87 0 c92 0 119 11 119 49 0 40 -21 50 -115 53 l-90 3 -12&#10;119 c-52 493 -311 925 -723 1201 -241 162 -520 254 -819 271 l-121 7 0 87 c0&#10;53 -5 91 -12 98 -16 16 -63 15 -76 -1z m-12 -390 l0 -93 -91 -17 c-284 -54&#10;-590 -230 -775 -445 -115 -134 -207 -298 -257 -458 -29 -93 -57 -230 -57 -283&#10;0 -81 -1 -81 -111 -81 -80 0 -99 3 -99 14 0 8 7 66 15 128 28 213 95 408 201&#10;585 169 285 453 526 754 641 119 45 322 96 408 101 9 1 12 -24 12 -92z m435&#10;68 c616 -130 1088 -606 1204 -1216 10 -57 21 -135 23 -174 l3 -70 -115 4 c-63&#10;2 -118 5 -122 8 -5 2 -8 26 -8 53 0 67 -32 228 -65 325 -132 394 -455 710&#10;-855 839 -129 42 -197 56 -308 64 l-87 7 -3 94 -3 94 128 -6 c70 -3 164 -13&#10;208 -22z m-106 -292 c483 -99 869 -481 965 -953 8 -41 18 -105 22 -142 l7 -68&#10;-42 0 c-70 0 -107 -60 -59 -94 12 -9 39 -16 60 -16 45 0 44 3 23 -127 -40&#10;-246 -147 -464 -314 -637 -216 -224 -471 -342 -785 -362 l-106 -7 0 80 c0 86&#10;-8 103 -51 103 -38 0 -48 -17 -51 -95 l-3 -70 -30 3 c-16 2 -72 14 -123 27&#10;-275 72 -524 240 -697 470 -57 76 -148 254 -174 342 -20 67 -51 228 -51 264 0&#10;17 9 19 89 19 98 0 121 11 121 55 0 40 -35 55 -127 55 l-83 0 0 33 c0 63 31&#10;223 61 312 122 365 416 651 803 780 60 20 133 39 162 42 l54 6 0 -71 c0 -65 2&#10;-73 25 -88 23 -15 27 -15 50 0 23 15 25 22 25 93 l0 76 77 -7 c42 -4 110 -14&#10;152 -23z m-1509 -1307 c0 -24 7 -80 15 -125 51 -265 177 -494 380 -690 197&#10;-189 421 -307 685 -358 l95 -19 0 -114 0 -115 -40 3 c-61 5 -218 41 -304 69&#10;-331 108 -646 363 -827 669 -119 202 -179 393 -209 667 l-6 57 105 0 106 0 0&#10;-44z m2837 -48 c-34 -477 -333 -938 -772 -1187 -205 -117 -475 -191 -697 -191&#10;l-88 0 0 115 0 115 89 0 c446 0 887 284 1100 707 71 142 131 361 131 478 l0&#10;45 121 0 122 0 -6 -82z m-149 -1001 l24 -25 -52 -59 c-97 -108 -82 -102 -137&#10;-58 -26 21 -50 40 -52 41 -2 2 30 39 70 83 l74 79 25 -18 c14 -10 35 -29 48&#10;-43z m300 -59 c75 -59 875 -774 886 -791 21 -34 26 -78 13 -114 -16 -43 -152&#10;-200 -191 -220 -46 -24 -100 -20 -143 10 -56 38 -863 757 -887 790 -30 41 -27&#10;106 8 154 58 83 151 174 190 187 42 14 94 8 124 -16z"/>
<path d="M2065 3746 c-16 -8 -42 -26 -56 -42 -42 -46 -691 -1156 -696 -1191&#10;-14 -84 41 -171 119 -191 27 -7 285 -13 704 -16 l662 -6 43 23 c76 41 111 145&#10;73 220 -80 155 -644 1139 -668 1165 -46 49 -121 65 -181 38z m108 -114 c16&#10;-18 637 -1112 650 -1145 10 -26 -13 -67 -42 -74 -14 -3 -318 -3 -676 0 l-650&#10;6 -23 27 c-16 18 -21 33 -16 47 8 27 627 1079 661 1125 28 37 70 43 96 14z"/>
<path d="M2066 3331 c-14 -16 -20 -57 -32 -228 -22 -333 -22 -333 59 -333 67&#10;0 87 20 87 88 0 31 9 131 20 222 25 206 25 232 2 253 -27 25 -114 23 -136 -2z"/>
<path d="M2093 2678 c-34 -9 -63 -49 -63 -88 0 -33 44 -70 82 -70 37 1 59 14&#10;76 47 36 67 -19 132 -95 111z"/>
</g>
</svg>